<?xml version="1.0" encoding="utf-8"?>
<!-- Generator: Adobe Illustrator 27.3.1, SVG Export Plug-In . SVG Version: 6.00 Build 0)  -->
<svg version="1.1" id="Layer_1" xmlns="http://www.w3.org/2000/svg" xmlns:xlink="http://www.w3.org/1999/xlink" x="0px" y="0px"
	 viewBox="0 0 407.45 157.28" style="enable-background:new 0 0 407.45 157.28;" xml:space="preserve">
<style type="text/css">
	.st0{clip-path:url(#SVGID_00000139278111829484023800000016933546971532480690_);}
	.st1{opacity:0.4;fill:#FF006E;}
	.st2{opacity:0.7;fill:#FF006E;}
	.st3{opacity:0.8;fill:#FF006E;}
	.st4{clip-path:url(#SVGID_00000177470165561933770250000012908197327769225375_);}
	.st5{opacity:0.56;fill:#FFFFFF;}
	.st6{fill:#1F44FF;}
	.st7{fill:#FF006E;}
	.st8{clip-path:url(#SVGID_00000158012335177471452930000005742482713625800849_);}
	.st9{clip-path:url(#SVGID_00000158012335177471452930000005742482713625800849_);fill:none;}
	.st10{opacity:0.5;fill:#FA0557;}
	.st11{fill:#FA0557;}
	.st12{opacity:0.52;fill-rule:evenodd;clip-rule:evenodd;fill:#FA0557;}
	.st13{opacity:0.5;fill:#0F38F0;}
	.st14{fill:#0F38F0;}
	.st15{opacity:0.55;fill:#FA0557;}
	.st16{fill:#FFFFFF;}
	.st17{opacity:0.3;fill:#FA0557;}
	.st18{opacity:0.6;fill:#FA0557;}
	.st19{fill:#921AE8;}
	.st20{fill:#F7B114;}
	.st21{fill:#FF7F00;}
	.st22{fill:#1E1E1E;}
	.st23{opacity:0.8;fill:#FA0557;}
	.st24{opacity:0.8;fill:#00DB7C;}
	.st25{opacity:0.5;fill:#00DB7C;}
	.st26{opacity:0.8;fill:#7900F2;}
	.st27{opacity:0.6;fill:#7900F2;}
	.st28{opacity:0.4;fill:#7900F2;}
	.st29{fill-rule:evenodd;clip-rule:evenodd;fill:#FFFFFF;}
	.st30{opacity:0.52;fill-rule:evenodd;clip-rule:evenodd;fill:#F7B114;}
	.st31{fill:#200040;}
	.st32{fill:#9433F5;}
	.st33{fill:#C999FA;}
	.st34{fill:#7900F2;}
	.st35{fill:#100A00;}
	.st36{fill:#FFCA66;}
	.st37{fill:#FFDC99;}
	.st38{fill:#FFA700;}
	.st39{fill:#051400;}
	.st40{fill:#33DC33;}
	.st41{fill:#99EE99;}
	.st42{fill:#009F00;}
	.st43{fill:#35E59A;}
	.st44{fill:#9AF2CD;}
	.st45{fill:#03B881;}
	.st46{fill:#86E268;}
	.st47{fill:#36CF03;}
	.st48{fill:#B5ECA3;}
	.st49{fill:#45D018;}
	.st50{fill:#0DEC33;}
	.st51{fill:#00B300;}
	.st52{fill:#FF1400;}
	.st53{fill:#798EFF;}
	.st54{fill:#00188F;}
	.st55{fill:#4CCCFF;}
	.st56{fill:#95DFFF;}
	.st57{fill:#1380AB;}
	.st58{opacity:0.6;fill:#FFFFFF;}
	.st59{opacity:0.8;fill:#FFFFFF;}
	.st60{opacity:0.4;fill:#FFFFFF;}
	.st61{opacity:0.6;}
	.st62{opacity:0.8;}
	.st63{opacity:0.4;}
	.st64{fill:#1C1C1C;}
	.st65{fill-rule:evenodd;clip-rule:evenodd;fill:#921AE8;}
	.st66{fill-rule:evenodd;clip-rule:evenodd;fill:#FFC127;}
	.st67{fill-rule:evenodd;clip-rule:evenodd;fill:#FF7F00;}
	.st68{fill:#0A0013;}
	.st69{fill:#000727;}
	.st70{opacity:0.6;fill:#FF006E;}
	.st71{opacity:0.5;fill:#FFFFFF;}
	.st72{opacity:0.5;}
	.st73{clip-path:url(#SVGID_00000142173640591739814850000014498149285140570267_);}
	.st74{opacity:0.8;clip-path:url(#SVGID_00000000943355437752624010000008816206373626371757_);fill:#7900F2;}
	.st75{opacity:0.4;clip-path:url(#SVGID_00000000943355437752624010000008816206373626371757_);fill:#7900F2;}
	.st76{opacity:0.7;fill:#35E59A;}
	.st77{opacity:0.66;fill:#9999FF;}
	.st78{opacity:0.7;}
	.st79{opacity:0.6;fill:#F15A24;}
	.st80{opacity:0.8;fill:#F15A24;}
	.st81{fill:#F15A24;}
	.st82{opacity:0.5;fill:#00FF99;}
	.st83{fill:#00FF99;}
	.st84{opacity:0.6;fill:#BFD730;}
	.st85{fill:#BFD730;}
	.st86{opacity:0.5;fill:#BFD730;}
	.st87{fill:#231F20;}
	.st88{opacity:0.5;fill:#1E1E1E;}
	.st89{font-family:'Kanit-Light';}
	.st90{font-size:62.4516px;}
</style>
<g>
	<g>
		<path class="st82" d="M54.65,63.88L1.48,106.99c-1.97,1.6-1.97,4.61,0,6.21l53.2,43.18c1.46,1.18,3.55,1.19,5.02,0.02l53.16-42.41
			c1.99-1.58,2.01-4.6,0.05-6.21L59.71,63.9C58.24,62.69,56.13,62.68,54.65,63.88z"/>
		<polygon class="st83" points="95.66,110.94 71.64,99.1 57.37,62.99 42.77,99.28 19.11,110.94 44.25,123.54 57.36,157.25 
			57.36,157.25 70.95,122.93 		"/>
	</g>
	<g>
		<path class="st16" d="M132.98,73.89h16.88c0.85,0,1.61,0.54,1.89,1.34l17.3,49.56l17.45-49.57c0.28-0.8,1.04-1.34,1.89-1.34h16.73
			c1.41,0,2.38,1.42,1.86,2.73l-26.44,67.38c-0.3,0.77-1.04,1.27-1.86,1.27h-19.11c-0.82,0-1.56-0.5-1.86-1.27l-26.58-67.38
			C130.6,75.32,131.57,73.89,132.98,73.89z"/>
		<path class="st16" d="M227.78,88.96H216.6c-1.2,0-2.41-0.95-1.99-2.24l4.07-11.06c0.44-1.2,0.97-1.76,1.99-1.76h25.44
			c1.1,0,2,0.9,2,2v67.38c0,1.1-0.9,2-2,2h-16.33c-1.1,0-2-0.9-2-2V88.96z"/>
		<path class="st16" d="M275.52,145.73c-4.13-0.6-7.59-1.39-10.39-2.36c-0.81-0.28-1.35-1.04-1.35-1.9V128.9
			c0-1.38,1.36-2.33,2.67-1.88c2.67,0.92,5.65,1.66,8.93,2.22c4.42,0.75,8.58,1.13,12.5,1.13c5.22,0,8.81-0.33,10.77-0.98
			c1.96-0.65,2.94-1.98,2.94-3.99c0-1.81-0.9-3.21-2.71-4.22c-1.81-1-5.27-2.31-10.39-3.92c-1.51-0.4-3.42-1-5.72-1.81
			c-7.03-2.31-12.17-5.07-15.44-8.28c-3.26-3.21-4.89-7.73-4.89-13.55c0-6.93,2.53-12.2,7.61-15.81c5.07-3.61,13.03-5.42,23.87-5.42
			c4.12,0,8.16,0.3,12.12,0.9c3.33,0.51,6.29,1.16,8.88,1.94c0.85,0.26,1.44,1.03,1.44,1.92v12.29c0,1.38-1.36,2.35-2.65,1.89
			c-1.97-0.71-4.15-1.3-6.53-1.78c-3.52-0.7-6.83-1.05-9.94-1.05c-4.82,0-8.38,0.33-10.69,0.98c-2.31,0.65-3.46,1.93-3.46,3.84
			c0,1.71,0.83,2.99,2.48,3.84c1.66,0.85,4.84,1.98,9.56,3.39l4.97,1.51c5.82,1.81,10.29,3.69,13.4,5.65c3.11,1.96,5.35,4.29,6.7,7
			c1.36,2.71,2.03,6.17,2.03,10.39c0,7.13-2.66,12.53-7.98,16.19c-5.32,3.67-13.2,5.5-23.64,5.5
			C285.36,146.79,280.34,146.43,275.52,145.73z"/>
		<path class="st16" d="M342.69,139.56c-4.72-4.82-7.08-11.8-7.08-20.93V75.89c0-1.1,0.9-2,2-2h16.33c1.1,0,2,0.9,2,2v42.28
			c0,4.72,1.13,8.18,3.39,10.39c2.26,2.21,5.75,3.31,10.47,3.31c3.41,0,6.6-0.68,9.56-2.03c2.69-1.23,5.07-2.81,7.14-4.75
			c0.4-0.37,0.62-0.91,0.62-1.46V75.89c0-1.1,0.9-2,2-2h16.33c1.1,0,2,0.9,2,2v67.38c0,1.1-0.9,2-2,2h-15.04
			c-1.02,0-1.88-0.77-1.99-1.78l-0.55-5c-6.93,5.52-15.31,8.28-25.15,8.28C354.08,146.79,347.4,144.38,342.69,139.56z"/>
	</g>
	<text transform="matrix(1 0 0 1 130.9787 53.5204)" class="st16 st89 st90">droz</text>
</g>
</svg>
